<?xml version="1.0" encoding="UTF-8" standalone="no"?>
<!-- Created with Inkscape (http://www.inkscape.org/) -->

<svg
   width="2560"
   height="512"
   viewBox="0 0 677.3333 135.46667"
   version="1.1"
   id="svg56570"
   inkscape:version="1.1.2 (0a00cf5339, 2022-02-04)"
   sodipodi:docname="blazeui_wide.svg"
   xmlns:inkscape="http://www.inkscape.org/namespaces/inkscape"
   xmlns:sodipodi="http://sodipodi.sourceforge.net/DTD/sodipodi-0.dtd"
   xmlns="http://www.w3.org/2000/svg"
   xmlns:svg="http://www.w3.org/2000/svg">
  <sodipodi:namedview
     id="namedview56572"
     pagecolor="#ffffff"
     bordercolor="#666666"
     borderopacity="1.0"
     inkscape:pageshadow="2"
     inkscape:pageopacity="0.0"
     inkscape:pagecheckerboard="0"
     inkscape:document-units="mm"
     showgrid="false"
     units="px"
     inkscape:zoom="0.35355339"
     inkscape:cx="1298.248"
     inkscape:cy="530.33008"
     inkscape:window-width="2560"
     inkscape:window-height="1395"
     inkscape:window-x="0"
     inkscape:window-y="21"
     inkscape:window-maximized="1"
     inkscape:current-layer="layer1" />
  <defs
     id="defs56567">
	
	
	

		
			<linearGradient
   id="SVGID_1_"
   gradientUnits="userSpaceOnUse"
   x1="533.16681"
   y1="38.590302"
   x2="562.76318"
   y2="750.9765"
   gradientTransform="matrix(0.22406129,-0.11620798,0.11620798,0.22406129,-85.250483,28.725087)">
			<stop
   offset="0"
   style="stop-color:#F37425"
   id="stop56824" />

			<stop
   offset="1"
   style="stop-color:#F3BB25"
   id="stop56826" />

		</linearGradient>

		
		
	</defs>
  <g
     inkscape:label="Layer 1"
     inkscape:groupmode="layer"
     id="layer1">
    <g
       id="g61645"
       style="stroke-width:0.953978"
       transform="matrix(1.0482405,0,0,1.0482405,-1.0935655e-6,-6.5349782)">
      <g
         id="g56839"
         transform="matrix(0.23223622,0,0,0.23223622,-55.98887,-3.2513074)"
         style="fill:#373739;fill-opacity:1;stroke-width:1.08686">
		<g
   id="g56837"
   style="fill:#373739;fill-opacity:1;stroke-width:1.08686">
			<path
   class="st1"
   d="m 752.7,292.7 c 6.3,34.2 5.7,68.7 -1.8,102.4 -7.2,32.6 -20.5,63.1 -39.5,90.6 -19,27.6 -42.8,50.9 -70.6,69.2 -28.9,19 -60.8,31.8 -95.1,38.1 -34.2,6.3 -68.7,5.7 -102.4,-1.8 -32.6,-7.2 -63.1,-20.5 -90.6,-39.5 -27.6,-19 -50.9,-42.8 -69.2,-70.6 -19,-28.9 -31.8,-60.8 -38.1,-95.1 -6.3,-34.3 -5.7,-68.9 1.8,-102.6 6.1,-27.4 17.1,-54.3 32.8,-80.2 3.5,-5.8 11.2,-7.4 16.8,-3.7 l 0.5,0.3 c 5.4,3.6 6.9,10.8 3.6,16.3 -14.3,23.6 -24.1,47.4 -29.6,72.5 -6.8,30.5 -7.3,61.7 -1.6,92.8 5.7,31 17.3,59.9 34.5,86 16.6,25.2 37.7,46.7 62.6,63.9 25,17.2 52.6,29.2 82,35.8 30.5,6.8 61.7,7.3 92.7,1.6 31,-5.7 59.9,-17.3 86,-34.5 25.2,-16.6 46.7,-37.7 63.9,-62.6 17.2,-25 29.2,-52.6 35.8,-82 6.8,-30.5 7.3,-61.7 1.6,-92.7 -5.7,-31 -17.3,-59.9 -34.5,-86 -16.6,-25.2 -37.7,-46.7 -62.6,-63.9 -25,-17.2 -52.6,-29.3 -82,-35.8 -26.8,-5.9 -54.5,-7 -81.3,-3.5 -6.4,0.8 -12.3,-3.4 -13.5,-9.7 l -0.1,-0.6 c -1.2,-6.8 3.5,-13.1 10.3,-14.1 30.4,-4.1 60.2,-2.8 90,3.9 32.5,7.2 63,20.5 90.6,39.6 27.6,19 50.9,42.8 69.2,70.7 18.6,29 31.5,61 37.8,95.2 z"
   id="path56835"
   style="fill:#373739;fill-opacity:1;stroke-width:1.08686" />

		</g>

	</g>
      <path
         class="st0"
         d="M 64.266603,46.450938 C 37.021295,36.050504 26.216755,21.162359 28.045871,10.315281 c 0,0 -33.8386291,42.962935 16.291885,76.801564 8.550049,5.721302 24.522904,9.485876 28.670315,31.945705 0,0 46.748779,-45.898024 -8.741468,-72.611612 z"
         id="path56829"
         style="fill:url(#SVGID_1_);stroke-width:0.252407" />
      <path
         class="st1"
         d="M 68.15879,120.33868 C 67.095351,115.8935 66.9252,105.11023 45.231045,94.603456 33.63956,88.988498 18.64507,71.356679 18.496189,65.380152 c 0,0 -5.40227,43.920038 30.137861,50.364468 21.098629,3.87092 19.52474,4.59406 19.52474,4.59406 z"
         id="path56831"
         style="stroke-width:0.252407" />
      <path
         d="M 44.034677,47.233699 C 35.211485,32.424312 37.102468,18.758187 49.70338,6.2342355 45.61085,16.199093 46.689728,24.332521 52.953811,30.633527 c 3.575251,3.594316 8.437148,4.78963 13.820115,6.107883 8.769898,2.15354 18.921189,4.643413 27.120291,18.405239 C 102.71741,69.956039 100.82644,83.622153 88.22555,96.1461 92.319656,86.183909 91.236509,78.049411 84.97666,71.749487 81.401424,68.155161 76.539536,66.959844 71.152328,65.640515 62.385053,63.485387 52.233766,60.995563 44.034677,47.233699 Z"
         style="clip-rule:evenodd;fill:#38bdf8;fill-rule:evenodd;stroke-width:0.013082"
         id="path59810" />
    </g>
    <g
       id="g71892">
      <g
         id="g77158"
         transform="matrix(1.589824,0,0,1.589824,336.02871,-413.69044)"
         style="stroke-width:0.629">
        <g
           id="g56851"
           transform="matrix(0.26458333,0,0,0.26458333,-126.95071,94.419771)"
           style="stroke-width:0.629">
		<path
   class="st2"
   d="m 14,697.6 h 75.5 c 43.9,0 79.3,11 79.3,52.2 0,18.1 -10.3,38.7 -26.4,45.1 v 1.3 c 20,5.8 36.1,21.3 36.1,49 0,43.2 -37.4,61.9 -82.5,61.9 H 14 Z m 74.2,81.9 c 18.1,0 26.4,-8.4 26.4,-21.3 0,-12.9 -8.4,-18.1 -26.4,-18.1 H 69.5 v 39.3 h 18.7 z m 3.8,85.1 c 21.9,0 32.2,-7.7 32.2,-23.2 0,-15.5 -10.3,-21.3 -32.2,-21.3 H 69.5 v 44.5 z"
   id="path56841"
   style="stroke-width:0.629" />

		<path
   class="st2"
   d="m 237.1,697.6 h 55.5 v 163.2 h 79.3 v 46.4 H 237.1 Z"
   id="path56843"
   style="stroke-width:0.629" />

		<path
   class="st2"
   d="m 468,697.6 h 67 l 63.8,209.6 h -58.7 l -20.3,-87.4 -48.7,42.9 -10.3,44.5 h -56.7 z m 13.2,122.2 h 38.7 l -3.5,-14.5 c -5.2,-20 -10.3,-45.5 -15.5,-66.4 h -1.3 c -4.5,21.3 -9.7,46.4 -14.8,66.4 z"
   id="path56845"
   style="stroke-width:0.629" />

		<path
   class="st2"
   d="M 631.8,873.7 717.5,744 h -77.4 v -46.4 h 145.7 v 33.5 L 700,860.7 h 86.4 v 46.4 H 631.8 Z"
   id="path56847"
   style="stroke-width:0.629" />

		<path
   class="st2"
   d="M 845.2,697.6 H 980.6 V 744 h -80 v 32.9 H 969 v 46.4 h -68.4 v 37.4 h 83.2 v 46.4 H 845.2 Z"
   id="path56849"
   style="stroke-width:0.629" />

	</g>
        <text
           xml:space="preserve"
           style="font-size:76.5574px;line-height:1.25;font-family:Semikolon;-inkscape-font-specification:Semikolon;stroke-width:0.166423"
           x="138.24512"
           y="333.64551"
           id="text65763"><tspan
             sodipodi:role="line"
             id="tspan65761"
             style="font-style:normal;font-variant:normal;font-weight:bold;font-stretch:normal;font-family:'Open Sans';-inkscape-font-specification:'Open Sans Bold';fill:#38bdf8;fill-opacity:1;stroke-width:0.166423"
             x="138.24512"
             y="333.64551">UI</tspan></text>
      </g>
    </g>
  </g>
  <style
     type="text/css"
     id="style56822">
	.st0{fill:url(#SVGID_1_);}
	.st1{fill:#FEDC00;}
	.st2{fill:#373739;}
</style>
</svg>
